<svg width="17" height="18" viewBox="0 0 17 18" fill="none" xmlns="http://www.w3.org/2000/svg">
<path d="M9.40625 11.6847H0.107955V8.72727H9.30398C9.99716 8.72727 10.5653 8.625 11.0085 8.42045C11.4517 8.21591 11.7784 7.92614 11.9886 7.55114C12.1989 7.17614 12.304 6.73295 12.304 6.22159C12.304 5.72159 12.1989 5.26989 11.9886 4.86648C11.7784 4.46307 11.4574 4.14205 11.0256 3.90341C10.5938 3.66477 10.054 3.54545 9.40625 3.54545H6.25284V18H2.58807V0.545454H9.40625C10.7869 0.545454 11.9688 0.792613 12.9517 1.28693C13.9403 1.77557 14.696 2.44602 15.2188 3.29829C15.7415 4.14489 16 5.10511 15.9943 6.17898C16 7.30398 15.7358 8.27841 15.2017 9.10227C14.6676 9.92614 13.9063 10.5625 12.9176 11.0114C11.929 11.4602 10.7585 11.6847 9.40625 11.6847ZM10.0625 12.8097V15.767H0.107955V12.8097H10.0625Z" fill="#5865F2"/>
</svg>
