<svg width="80" height="62" viewBox="0 0 80 62" fill="none" xmlns="http://www.w3.org/2000/svg">
<path d="M43.7485 34.8213H22.79V30.4427H43.7485C45.6831 30.4427 47.2818 30.111 48.5447 29.4476C49.8076 28.7709 50.748 27.8554 51.366 26.701C51.9841 25.5334 52.2931 24.2065 52.2931 22.7205C52.2931 21.2344 51.9841 19.9142 51.366 18.7598C50.748 17.5922 49.8076 16.6767 48.5447 16.0133C47.2818 15.3366 45.6831 14.9982 43.7485 14.9982H34.3172V51.3804H29.3194V10.6196H43.7485C46.8116 10.6196 49.3374 11.1703 51.3257 12.2716C53.3141 13.3728 54.7919 14.839 55.7593 16.6701C56.7266 18.5011 57.2102 20.5179 57.2102 22.7205C57.2102 24.923 56.7266 26.9398 55.7593 28.7709C54.7919 30.6019 53.3141 32.0681 51.3257 33.1694C49.3374 34.2707 46.8116 34.8213 43.7485 34.8213ZM43.426 38.6426V43.0212H22.79V38.6426H43.426Z" fill="#2BBDF8"/>
<path d="M43.7485 34.8213H22.79V30.4427H43.7485C45.6831 30.4427 47.2818 30.111 48.5447 29.4476C49.8076 28.7709 50.748 27.8554 51.366 26.701C51.9841 25.5334 52.2931 24.2065 52.2931 22.7205C52.2931 21.2344 51.9841 19.9142 51.366 18.7598C50.748 17.5922 49.8076 16.6767 48.5447 16.0133C47.2818 15.3366 45.6831 14.9982 43.7485 14.9982H34.3172V51.3804H29.3194V10.6196H43.7485C46.8116 10.6196 49.3374 11.1703 51.3257 12.2716C53.3141 13.3728 54.7919 14.839 55.7593 16.6701C56.7266 18.5011 57.2102 20.5179 57.2102 22.7205C57.2102 24.923 56.7266 26.9398 55.7593 28.7709C54.7919 30.6019 53.3141 32.0681 51.3257 33.1694C49.3374 34.2707 46.8116 34.8213 43.7485 34.8213ZM43.426 38.6426V43.0212H22.79V38.6426H43.426Z" fill="url(#paint0_linear_384_603)" fill-opacity="0.5"/>
<defs>
<linearGradient id="paint0_linear_384_603" x1="40.0001" y1="10.6196" x2="40.0001" y2="51.3804" gradientUnits="userSpaceOnUse">
<stop stop-color="#2A6DEF" stop-opacity="0"/>
<stop offset="1" stop-color="#2A6DEF"/>
</linearGradient>
</defs>
</svg>
