<svg width="25" height="24" viewBox="0 0 25 24" fill="none" xmlns="http://www.w3.org/2000/svg">
<path d="M20.5 12V8H6.5C5.96957 8 5.46086 7.78929 5.08579 7.41421C4.71071 7.03914 4.5 6.53043 4.5 6C4.5 4.9 5.4 4 6.5 4H18.5V8" stroke="#23272A" stroke-width="2" stroke-linecap="round" stroke-linejoin="round"/>
<path d="M4.5 6V18C4.5 19.1 5.4 20 6.5 20H20.5V16" stroke="#23272A" stroke-width="2" stroke-linecap="round" stroke-linejoin="round"/>
<path d="M18.5 12C17.9696 12 17.4609 12.2107 17.0858 12.5858C16.7107 12.9609 16.5 13.4696 16.5 14C16.5 15.1 17.4 16 18.5 16H22.5V12H18.5Z" stroke="#23272A" stroke-width="2" stroke-linecap="round" stroke-linejoin="round"/>
</svg>
