<svg width="25" height="24" viewBox="0 0 25 24" fill="none" xmlns="http://www.w3.org/2000/svg">
<path d="M12.666 20.9401C14.166 20.9401 15.416 22.0001 16.666 22.0001C19.666 22.0001 22.666 14.0001 22.666 9.78007C22.6319 8.4848 22.0872 7.2555 21.1507 6.36012C20.2141 5.46474 18.9615 4.97588 17.666 5.00007C15.446 5.00007 13.666 6.44007 12.666 7.00007C11.666 6.44007 9.88602 5.00007 7.66602 5.00007C6.36977 4.97323 5.11571 5.46122 4.17855 6.35716C3.24138 7.25309 2.69749 8.48393 2.66602 9.78007C2.66602 14.0001 5.66602 22.0001 8.66602 22.0001C9.91602 22.0001 11.166 20.9401 12.666 20.9401Z" stroke="#5865F2" stroke-width="2" stroke-linecap="round" stroke-linejoin="round"/>
<path d="M10.666 2C11.666 2.5 12.666 4 12.666 7" stroke="#5865F2" stroke-width="2" stroke-linecap="round" stroke-linejoin="round"/>
</svg>
