<svg width="94" height="23" viewBox="0 0 94 23" fill="none" xmlns="http://www.w3.org/2000/svg">
<path d="M5.89773 0.545454L9.47727 12.8523H9.61364L13.1932 0.545454H18.5455L12.7841 18H6.30682L0.545455 0.545454H5.89773ZM32.097 4.90909C32.0004 3.9375 31.5714 3.16477 30.8101 2.59091C30.0487 2.01705 29.0913 1.73011 27.9379 1.73011C27.1254 1.73011 26.4095 1.86932 25.7902 2.14773C25.1766 2.42614 24.6936 2.8125 24.3413 3.30682C23.9947 3.79545 23.8214 4.35227 23.8214 4.97727C23.8214 5.4375 23.9209 5.84091 24.1197 6.1875C24.3186 6.53409 24.5857 6.83239 24.9209 7.08239C25.2618 7.3267 25.6368 7.53693 26.0459 7.71307C26.4607 7.8892 26.8783 8.03693 27.2987 8.15625L29.1396 8.68466C29.6964 8.83807 30.2533 9.03409 30.8101 9.27273C31.3669 9.51136 31.8754 9.8125 32.3357 10.1761C32.8016 10.5341 33.1737 10.9744 33.4521 11.4972C33.7362 12.0142 33.8783 12.6364 33.8783 13.3636C33.8783 14.2955 33.6368 15.1335 33.1538 15.8778C32.6709 16.6222 31.9777 17.2131 31.0743 17.6506C30.1709 18.0824 29.0885 18.2983 27.8271 18.2983C26.6396 18.2983 25.6084 18.1023 24.7334 17.7102C23.8584 17.3125 23.1709 16.7642 22.6709 16.0653C22.1709 15.3665 21.8896 14.5568 21.8271 13.6364H23.4635C23.5203 14.3239 23.7476 14.9062 24.1453 15.3835C24.543 15.8608 25.0601 16.2244 25.6964 16.4744C26.3328 16.7187 27.043 16.8409 27.8271 16.8409C28.6964 16.8409 29.4692 16.696 30.1453 16.4062C30.8271 16.1108 31.3612 15.7017 31.7476 15.179C32.1396 14.6506 32.3357 14.0369 32.3357 13.3381C32.3357 12.7472 32.1822 12.2528 31.8754 11.8551C31.5686 11.4517 31.1396 11.1136 30.5885 10.8409C30.043 10.5682 29.4095 10.3267 28.6879 10.1165L26.5999 9.50284C25.2305 9.09375 24.168 8.52841 23.4124 7.80682C22.6567 7.08523 22.2788 6.16477 22.2788 5.04545C22.2788 4.10795 22.5288 3.28409 23.0288 2.57386C23.5345 1.85795 24.2163 1.30114 25.0743 0.903408C25.9379 0.499999 26.9067 0.298295 27.9805 0.298295C29.0658 0.298295 30.026 0.497159 30.8612 0.894886C31.6964 1.29261 32.3584 1.84091 32.847 2.53977C33.3413 3.23295 33.6055 4.02273 33.6396 4.90909H32.097ZM38.5982 22.9091V4.90909H40.0726V7.40625H40.2516C40.4334 7.0142 40.6834 6.61364 41.0016 6.20455C41.3197 5.78977 41.7402 5.44034 42.2629 5.15625C42.7913 4.87216 43.4561 4.73011 44.2572 4.73011C45.3368 4.73011 46.28 5.0142 47.0868 5.58239C47.8993 6.14489 48.53 6.93466 48.9788 7.9517C49.4334 8.96307 49.6607 10.142 49.6607 11.4886C49.6607 12.8409 49.4334 14.0256 48.9788 15.0426C48.53 16.0597 47.8993 16.8523 47.0868 17.4205C46.28 17.9886 45.3425 18.2727 44.2743 18.2727C43.4845 18.2727 42.8226 18.1307 42.2885 17.8466C41.7601 17.5625 41.3311 17.2131 41.0016 16.7983C40.6777 16.3778 40.4277 15.9687 40.2516 15.571H40.1152V22.9091H38.5982ZM40.0982 11.4631C40.0982 12.5199 40.2544 13.4574 40.5669 14.2756C40.8851 15.0881 41.3396 15.7273 41.9305 16.1932C42.5271 16.6534 43.2487 16.8835 44.0953 16.8835C44.9646 16.8835 45.6976 16.6449 46.2942 16.1676C46.8965 15.6847 47.3538 15.0341 47.6663 14.2159C47.9845 13.3977 48.1436 12.4801 48.1436 11.4631C48.1436 10.4574 47.9874 9.55114 47.6749 8.74432C47.368 7.9375 46.9135 7.2983 46.3112 6.8267C45.709 6.34943 44.9703 6.1108 44.0953 6.1108C43.243 6.1108 42.5186 6.34091 41.922 6.80114C41.3254 7.25568 40.8709 7.88636 40.5584 8.69318C40.2516 9.49432 40.0982 10.4176 40.0982 11.4631ZM57.845 18.2983C57.0553 18.2983 56.3337 18.1449 55.6803 17.8381C55.0268 17.5256 54.507 17.0767 54.1206 16.4915C53.7342 15.9006 53.541 15.1847 53.541 14.3438C53.541 13.696 53.6632 13.1506 53.9075 12.7074C54.1518 12.2642 54.4984 11.9006 54.9473 11.6165C55.3962 11.3324 55.9274 11.108 56.541 10.9432C57.1547 10.7784 57.8308 10.6506 58.5695 10.5597C59.3024 10.4687 59.9217 10.3892 60.4274 10.321C60.9388 10.2528 61.328 10.1449 61.595 9.99716C61.8621 9.84943 61.9956 9.6108 61.9956 9.28125V8.97443C61.9956 8.08239 61.7285 7.38068 61.1945 6.86932C60.666 6.35227 59.9047 6.09375 58.9104 6.09375C57.9672 6.09375 57.1973 6.30114 56.6007 6.71591C56.0098 7.13068 55.595 7.61932 55.3564 8.18182L53.916 7.66193C54.2115 6.94602 54.6206 6.375 55.1433 5.94886C55.666 5.51705 56.2513 5.20739 56.899 5.01989C57.5467 4.8267 58.203 4.73011 58.8678 4.73011C59.3678 4.73011 59.8876 4.79545 60.4274 4.92614C60.9729 5.05682 61.4785 5.28409 61.9445 5.60795C62.4104 5.92614 62.7882 6.37216 63.078 6.94602C63.3678 7.5142 63.5126 8.2358 63.5126 9.1108V18H61.9956V15.929H61.9018C61.72 16.3153 61.4501 16.6903 61.0922 17.054C60.7342 17.4176 60.2854 17.7159 59.7456 17.9489C59.2058 18.1818 58.5723 18.2983 57.845 18.2983ZM58.0496 16.9091C58.8564 16.9091 59.5553 16.7301 60.1462 16.3722C60.7371 16.0142 61.1916 15.5398 61.5098 14.9489C61.8337 14.3523 61.9956 13.696 61.9956 12.9801V11.0881C61.882 11.196 61.6916 11.2926 61.4246 11.3778C61.1632 11.4631 60.8592 11.5398 60.5126 11.608C60.1717 11.6705 59.8308 11.7244 59.4899 11.7699C59.149 11.8153 58.8422 11.8551 58.5695 11.8892C57.8308 11.9801 57.2001 12.1222 56.6774 12.3153C56.1547 12.5085 55.7541 12.7756 55.4757 13.1165C55.1973 13.4517 55.0581 13.8835 55.0581 14.4119C55.0581 15.2074 55.3422 15.8239 55.9104 16.2614C56.4785 16.6932 57.1916 16.9091 58.0496 16.9091ZM73.8618 18.2727C72.6913 18.2727 71.6715 17.9801 70.8021 17.3949C69.9385 16.8097 69.268 16.0085 68.7908 14.9915C68.3135 13.9744 68.0749 12.8153 68.0749 11.5142C68.0749 10.2017 68.3163 9.03409 68.7993 8.01136C69.2879 6.98864 69.9641 6.1875 70.8277 5.60795C71.6913 5.02273 72.6942 4.73011 73.8362 4.73011C74.7112 4.73011 75.5038 4.90057 76.2141 5.24148C76.9243 5.5767 77.5095 6.05114 77.9697 6.66477C78.4357 7.27273 78.7283 7.98295 78.8476 8.79545H77.3135C77.1544 8.05682 76.7709 7.42614 76.1629 6.90341C75.5607 6.375 74.7936 6.1108 73.8618 6.1108C73.0266 6.1108 72.2879 6.33807 71.6459 6.79261C71.0038 7.24148 70.501 7.86932 70.1374 8.67614C69.7794 9.47727 69.6004 10.4062 69.6004 11.4631C69.6004 12.5256 69.7766 13.4659 70.1288 14.2841C70.4811 15.0966 70.9754 15.733 71.6118 16.1932C72.2538 16.6534 73.0038 16.8835 73.8618 16.8835C74.4413 16.8835 74.9697 16.7756 75.447 16.5597C75.93 16.3381 76.3334 16.0256 76.6572 15.6222C76.9868 15.2187 77.2084 14.7386 77.322 14.1818H78.8561C78.7425 14.9716 78.4612 15.6761 78.0124 16.2955C77.5692 16.9091 76.9925 17.392 76.2822 17.7443C75.5777 18.0966 74.7709 18.2727 73.8618 18.2727ZM88.6001 18.2727C87.3786 18.2727 86.3217 17.9886 85.4297 17.4205C84.5376 16.8466 83.8473 16.054 83.3587 15.0426C82.8757 14.0256 82.6342 12.8551 82.6342 11.5312C82.6342 10.2131 82.8757 9.04261 83.3587 8.01989C83.8473 6.99148 84.5206 6.1875 85.3786 5.60795C86.2422 5.02273 87.2393 4.73011 88.37 4.73011C89.0803 4.73011 89.7649 4.8608 90.424 5.12216C91.0831 5.37784 91.674 5.77273 92.1967 6.30682C92.7251 6.83523 93.1428 7.50284 93.4496 8.30966C93.7564 9.1108 93.9098 10.0597 93.9098 11.1562V11.9062H83.6825V10.5682H92.3587C92.3587 9.72727 92.1882 8.97159 91.8473 8.30114C91.5121 7.625 91.0433 7.09091 90.4411 6.69886C89.8445 6.30682 89.1541 6.1108 88.37 6.1108C87.5405 6.1108 86.8104 6.33239 86.1797 6.77557C85.549 7.21875 85.0547 7.80398 84.6967 8.53125C84.3445 9.25852 84.1655 10.054 84.1598 10.9176V11.7188C84.1598 12.7585 84.3388 13.6676 84.6967 14.446C85.0604 15.2187 85.5746 15.8182 86.2393 16.2443C86.9041 16.6705 87.6911 16.8835 88.6001 16.8835C89.2195 16.8835 89.7621 16.7869 90.228 16.5938C90.6996 16.4006 91.0945 16.142 91.4126 15.8182C91.7365 15.4886 91.9808 15.1278 92.1456 14.7358L93.5859 15.2045C93.3871 15.7557 93.0604 16.2642 92.6058 16.7301C92.157 17.196 91.5945 17.571 90.9183 17.8551C90.2479 18.1335 89.4751 18.2727 88.6001 18.2727Z" fill="white"/>
</svg>
