<svg width="94" height="24" viewBox="0 0 94 24" fill="none" xmlns="http://www.w3.org/2000/svg">
<path d="M5.89773 1.04545L9.47727 13.3523H9.61364L13.1932 1.04545H18.5455L12.7841 18.5H6.30682L0.545455 1.04545H5.89773Z" fill="#0A2896"/>
<path d="M32.097 5.40909C32.0004 4.4375 31.5714 3.66477 30.8101 3.09091C30.0487 2.51705 29.0913 2.23011 27.9379 2.23011C27.1254 2.23011 26.4095 2.36932 25.7902 2.64773C25.1766 2.92614 24.6936 3.3125 24.3413 3.80682C23.9947 4.29545 23.8214 4.85227 23.8214 5.47727C23.8214 5.9375 23.9209 6.34091 24.1197 6.6875C24.3186 7.03409 24.5857 7.33239 24.9209 7.58239C25.2618 7.8267 25.6368 8.03693 26.0459 8.21307C26.4607 8.3892 26.8783 8.53693 27.2987 8.65625L29.1396 9.18466C29.6964 9.33807 30.2533 9.53409 30.8101 9.77273C31.3669 10.0114 31.8754 10.3125 32.3357 10.6761C32.8016 11.0341 33.1737 11.4744 33.4521 11.9972C33.7362 12.5142 33.8783 13.1364 33.8783 13.8636C33.8783 14.7955 33.6368 15.6335 33.1538 16.3778C32.6709 17.1222 31.9777 17.7131 31.0743 18.1506C30.1709 18.5824 29.0885 18.7983 27.8271 18.7983C26.6396 18.7983 25.6084 18.6023 24.7334 18.2102C23.8584 17.8125 23.1709 17.2642 22.6709 16.5653C22.1709 15.8665 21.8896 15.0568 21.8271 14.1364H23.4635C23.5203 14.8239 23.7476 15.4062 24.1453 15.8835C24.543 16.3608 25.0601 16.7244 25.6964 16.9744C26.3328 17.2187 27.043 17.3409 27.8271 17.3409C28.6964 17.3409 29.4692 17.196 30.1453 16.9062C30.8271 16.6108 31.3612 16.2017 31.7476 15.679C32.1396 15.1506 32.3357 14.5369 32.3357 13.8381C32.3357 13.2472 32.1822 12.7528 31.8754 12.3551C31.5686 11.9517 31.1396 11.6136 30.5885 11.3409C30.043 11.0682 29.4095 10.8267 28.6879 10.6165L26.5999 10.0028C25.2305 9.59375 24.168 9.02841 23.4124 8.30682C22.6567 7.58523 22.2788 6.66477 22.2788 5.54545C22.2788 4.60795 22.5288 3.78409 23.0288 3.07386C23.5345 2.35795 24.2163 1.80114 25.0743 1.40341C25.9379 0.999999 26.9067 0.798295 27.9805 0.798295C29.0658 0.798295 30.026 0.997159 30.8612 1.39489C31.6964 1.79261 32.3584 2.34091 32.847 3.03977C33.3413 3.73295 33.6055 4.52273 33.6396 5.40909H32.097ZM38.5982 23.4091V5.40909H40.0726V7.90625H40.2516C40.4334 7.5142 40.6834 7.11364 41.0016 6.70455C41.3197 6.28977 41.7402 5.94034 42.2629 5.65625C42.7913 5.37216 43.4561 5.23011 44.2572 5.23011C45.3368 5.23011 46.28 5.5142 47.0868 6.08239C47.8993 6.64489 48.53 7.43466 48.9788 8.4517C49.4334 9.46307 49.6607 10.642 49.6607 11.9886C49.6607 13.3409 49.4334 14.5256 48.9788 15.5426C48.53 16.5597 47.8993 17.3523 47.0868 17.9205C46.28 18.4886 45.3425 18.7727 44.2743 18.7727C43.4845 18.7727 42.8226 18.6307 42.2885 18.3466C41.7601 18.0625 41.3311 17.7131 41.0016 17.2983C40.6777 16.8778 40.4277 16.4687 40.2516 16.071H40.1152V23.4091H38.5982ZM40.0982 11.9631C40.0982 13.0199 40.2544 13.9574 40.5669 14.7756C40.8851 15.5881 41.3396 16.2273 41.9305 16.6932C42.5271 17.1534 43.2487 17.3835 44.0953 17.3835C44.9646 17.3835 45.6976 17.1449 46.2942 16.6676C46.8965 16.1847 47.3538 15.5341 47.6663 14.7159C47.9845 13.8977 48.1436 12.9801 48.1436 11.9631C48.1436 10.9574 47.9874 10.0511 47.6749 9.24432C47.368 8.4375 46.9135 7.7983 46.3112 7.3267C45.709 6.84943 44.9703 6.6108 44.0953 6.6108C43.243 6.6108 42.5186 6.84091 41.922 7.30114C41.3254 7.75568 40.8709 8.38636 40.5584 9.19318C40.2516 9.99432 40.0982 10.9176 40.0982 11.9631ZM57.845 18.7983C57.0553 18.7983 56.3337 18.6449 55.6803 18.3381C55.0268 18.0256 54.507 17.5767 54.1206 16.9915C53.7342 16.4006 53.541 15.6847 53.541 14.8438C53.541 14.196 53.6632 13.6506 53.9075 13.2074C54.1518 12.7642 54.4984 12.4006 54.9473 12.1165C55.3962 11.8324 55.9274 11.608 56.541 11.4432C57.1547 11.2784 57.8308 11.1506 58.5695 11.0597C59.3024 10.9687 59.9217 10.8892 60.4274 10.821C60.9388 10.7528 61.328 10.6449 61.595 10.4972C61.8621 10.3494 61.9956 10.1108 61.9956 9.78125V9.47443C61.9956 8.58239 61.7285 7.88068 61.1945 7.36932C60.666 6.85227 59.9047 6.59375 58.9104 6.59375C57.9672 6.59375 57.1973 6.80114 56.6007 7.21591C56.0098 7.63068 55.595 8.11932 55.3564 8.68182L53.916 8.16193C54.2115 7.44602 54.6206 6.875 55.1433 6.44886C55.666 6.01705 56.2513 5.70739 56.899 5.51989C57.5467 5.3267 58.203 5.23011 58.8678 5.23011C59.3678 5.23011 59.8876 5.29545 60.4274 5.42614C60.9729 5.55682 61.4785 5.78409 61.9445 6.10795C62.4104 6.42614 62.7882 6.87216 63.078 7.44602C63.3678 8.0142 63.5126 8.7358 63.5126 9.6108V18.5H61.9956V16.429H61.9018C61.72 16.8153 61.4501 17.1903 61.0922 17.554C60.7342 17.9176 60.2854 18.2159 59.7456 18.4489C59.2058 18.6818 58.5723 18.7983 57.845 18.7983ZM58.0496 17.4091C58.8564 17.4091 59.5553 17.2301 60.1462 16.8722C60.7371 16.5142 61.1916 16.0398 61.5098 15.4489C61.8337 14.8523 61.9956 14.196 61.9956 13.4801V11.5881C61.882 11.696 61.6916 11.7926 61.4246 11.8778C61.1632 11.9631 60.8592 12.0398 60.5126 12.108C60.1717 12.1705 59.8308 12.2244 59.4899 12.2699C59.149 12.3153 58.8422 12.3551 58.5695 12.3892C57.8308 12.4801 57.2001 12.6222 56.6774 12.8153C56.1547 13.0085 55.7541 13.2756 55.4757 13.6165C55.1973 13.9517 55.0581 14.3835 55.0581 14.9119C55.0581 15.7074 55.3422 16.3239 55.9104 16.7614C56.4785 17.1932 57.1916 17.4091 58.0496 17.4091ZM73.8618 18.7727C72.6913 18.7727 71.6715 18.4801 70.8021 17.8949C69.9385 17.3097 69.268 16.5085 68.7908 15.4915C68.3135 14.4744 68.0749 13.3153 68.0749 12.0142C68.0749 10.7017 68.3163 9.53409 68.7993 8.51136C69.2879 7.48864 69.9641 6.6875 70.8277 6.10795C71.6913 5.52273 72.6942 5.23011 73.8362 5.23011C74.7112 5.23011 75.5038 5.40057 76.2141 5.74148C76.9243 6.0767 77.5095 6.55114 77.9697 7.16477C78.4357 7.77273 78.7283 8.48295 78.8476 9.29545H77.3135C77.1544 8.55682 76.7709 7.92614 76.1629 7.40341C75.5607 6.875 74.7936 6.6108 73.8618 6.6108C73.0266 6.6108 72.2879 6.83807 71.6459 7.29261C71.0038 7.74148 70.501 8.36932 70.1374 9.17614C69.7794 9.97727 69.6004 10.9062 69.6004 11.9631C69.6004 13.0256 69.7766 13.9659 70.1288 14.7841C70.4811 15.5966 70.9754 16.233 71.6118 16.6932C72.2538 17.1534 73.0038 17.3835 73.8618 17.3835C74.4413 17.3835 74.9697 17.2756 75.447 17.0597C75.93 16.8381 76.3334 16.5256 76.6572 16.1222C76.9868 15.7187 77.2084 15.2386 77.322 14.6818H78.8561C78.7425 15.4716 78.4612 16.1761 78.0124 16.7955C77.5692 17.4091 76.9925 17.892 76.2822 18.2443C75.5777 18.5966 74.7709 18.7727 73.8618 18.7727ZM88.6001 18.7727C87.3786 18.7727 86.3217 18.4886 85.4297 17.9205C84.5376 17.3466 83.8473 16.554 83.3587 15.5426C82.8757 14.5256 82.6342 13.3551 82.6342 12.0312C82.6342 10.7131 82.8757 9.54261 83.3587 8.51989C83.8473 7.49148 84.5206 6.6875 85.3786 6.10795C86.2422 5.52273 87.2393 5.23011 88.37 5.23011C89.0803 5.23011 89.7649 5.3608 90.424 5.62216C91.0831 5.87784 91.674 6.27273 92.1967 6.80682C92.7251 7.33523 93.1428 8.00284 93.4496 8.80966C93.7564 9.6108 93.9098 10.5597 93.9098 11.6562V12.4062H83.6825V11.0682H92.3587C92.3587 10.2273 92.1882 9.47159 91.8473 8.80114C91.5121 8.125 91.0433 7.59091 90.4411 7.19886C89.8445 6.80682 89.1541 6.6108 88.37 6.6108C87.5405 6.6108 86.8104 6.83239 86.1797 7.27557C85.549 7.71875 85.0547 8.30398 84.6967 9.03125C84.3445 9.75852 84.1655 10.554 84.1598 11.4176V12.2188C84.1598 13.2585 84.3388 14.1676 84.6967 14.946C85.0604 15.7187 85.5746 16.3182 86.2393 16.7443C86.9041 17.1705 87.6911 17.3835 88.6001 17.3835C89.2195 17.3835 89.7621 17.2869 90.228 17.0938C90.6996 16.9006 91.0945 16.642 91.4126 16.3182C91.7365 15.9886 91.9808 15.6278 92.1456 15.2358L93.5859 15.7045C93.3871 16.2557 93.0604 16.7642 92.6058 17.2301C92.157 17.696 91.5945 18.071 90.9183 18.3551C90.2479 18.6335 89.4751 18.7727 88.6001 18.7727Z" fill="#00AAFF"/>
</svg>
